<svg version="1.1" viewBox="0.0 0.0 960.0 720.0" fill="none" stroke="none" stroke-linecap="square" stroke-miterlimit="10" xmlns:xlink="http://www.w3.org/1999/xlink" xmlns="http://www.w3.org/2000/svg"><clipPath id="p.0"><path d="m0 0l960.0 0l0 720.0l-960.0 0l0 -720.0z" clip-rule="nonzero"/></clipPath><g clip-path="url(#p.0)"><path fill="#000000" fill-opacity="0.0" d="m0 0l960.0 0l0 720.0l-960.0 0z" fill-rule="evenodd"/><path fill="#b7b7b7" d="m436.3622 316.3622l87.275604 0l-29.091583 29.091553l-29.092468 0l0 29.092468l-29.091553 29.091553z" fill-rule="evenodd"/><path stroke="#000000" stroke-width="1.0" stroke-linejoin="round" stroke-linecap="butt" d="m436.3622 316.3622l87.275604 0l-29.091583 29.091553l-29.092468 0l0 29.092468l-29.091553 29.091553z" fill-rule="evenodd"/><path fill="#b7b7b7" d="m539.6378 419.6378l-87.275604 0l29.091553 -29.091553l29.092468 0l0 -29.092468l29.091583 -29.091553z" fill-rule="evenodd"/><path stroke="#000000" stroke-width="1.0" stroke-linejoin="round" stroke-linecap="butt" d="m539.6378 419.6378l-87.275604 0l29.091553 -29.091553l29.092468 0l0 -29.092468l29.091583 -29.091553z" fill-rule="evenodd"/><path fill="#4a86e8" d="m451.79507 419.63782l87.99997 -88.0l-15.433044 -15.433075l-88.0 88.0z" fill-rule="evenodd"/><path stroke="#000000" stroke-width="1.0" stroke-linejoin="round" stroke-linecap="butt" d="m451.79507 419.63782l87.99997 -88.0l-15.433044 -15.433075l-88.0 88.0z" fill-rule="evenodd"/></g></svg>